<?xml version="1.0" standalone="yes"?>
<svg xmlns="http://www.w3.org/2000/svg" width="1024" height="1024">
<path style="fill:#121212; stroke:none;" d="M569 267C569 233.228 573.16 199.673 575.036 166C575.632 155.287 581.169 138.639 570.895 130.804C563.017 124.796 552.498 129.138 545 133.427C526.274 144.139 508.57 158.151 493 173.039C473.928 191.277 457.001 211.273 442.025 233C436.845 240.516 431.895 248.174 427.2 256C424.524 260.46 422.078 266.232 417.896 269.487C412.556 273.642 403.419 274.197 397 275.884C385.102 279.013 373.387 282.953 362 287.603C325.311 302.586 292.971 328.134 270.745 361C242.581 402.647 236.186 452.002 234.985 501C234.285 529.604 233.871 558.574 238.438 587C245.9 633.437 267.927 677.664 304 708.572C331.339 731.996 362.762 746.12 397 756.279C408.18 759.597 419.685 761.833 431 764.626C435.667 765.778 441.626 766.049 445.852 768.43C449.106 770.263 448.976 773.691 448.999 777C449.043 783.333 449 789.667 449 796C449 821.807 444.643 847.296 444.015 873C443.768 883.08 446.306 894.397 458 896.506C463.698 897.534 469.396 894.525 474 891.478C483.218 885.377 491.225 877.58 500 870.884C536.263 843.216 573.021 816.122 610 789.424C632.276 773.342 654.575 757.297 677 741.424C710.615 717.631 743.457 692.202 763.218 655C785.566 612.928 789 567.719 789 521C789 498.331 789.516 475.51 786.715 453C781.104 407.901 762.916 364.194 729.961 332.089C685.732 289.003 628.402 274.513 569 267M529 202C529 223.186 527.839 244.903 525.83 266C524.835 276.452 522.038 289.77 528.649 298.985C534.436 307.052 543.954 307.978 553 309.271C569.699 311.657 586.428 313.286 603 316.6C647.343 325.468 688.449 344.217 715.572 382C743.361 420.712 745 467.314 745 513C745 561.794 743.961 611.094 713.522 652C698.478 672.216 677.263 686.935 657 701.421C631.719 719.494 606.282 737.347 581 755.421C561.513 769.352 542.161 783.497 523 797.873C513.343 805.12 503.331 815.641 492 820C493.91 811.976 493 803.209 493 795C493 775.027 496.435 748.967 479.985 734.185C472.801 727.729 464.061 726.566 455 724.576C441.993 721.719 428.834 719.143 416 715.576C372.563 703.501 334.249 685.386 308.029 647C282.648 609.843 279 565.627 279 522C279 502.71 278.336 483.195 280.17 464C284.094 422.932 300.498 383.697 332 356.289C352.274 338.65 376.571 327.844 402 320.025C415.642 315.83 434.79 314.986 445.996 305.671C455.01 298.178 460.102 285.821 466.192 276C478.756 255.737 493.125 235.902 510 219C515.761 213.229 521.542 205.478 529 202M402 454.518C362.206 463.007 365.744 523.589 404 531.192C408.778 532.142 413.246 532.031 418 530.985C456.248 522.569 455.593 460.149 416 454.301C411.593 453.65 406.365 453.587 402 454.518M608 454.468C568.778 461.82 570.171 521.187 607 530.844C611.664 532.067 616.254 532.24 621 531.384C659.212 524.495 662.018 462.842 623 454.518C618.353 453.526 612.663 453.593 608 454.468M440 578.559C428.844 580.45 424.457 592.499 429.442 602C433.493 609.72 442.747 615.392 450 619.796C476.974 636.172 510.461 639.196 541 632.996C559.888 629.162 579.794 619.378 592.895 604.996C600.054 597.138 599.777 581.553 587 579.228C573.528 576.778 563.093 590.321 552 595.741C534.978 604.058 515.613 606.354 497 603.714C484.685 601.969 473.2 597.415 463 590.279C456.486 585.721 448.81 577.065 440 578.559z"/>
</svg>
